<svg xmlns="http://www.w3.org/2000/svg"><symbol viewBox="0 0 512 512" id="adjust"><path d="M8 256c0 136.966 111.033 248 248 248s248-111.034 248-248S392.966 8 256 8 8 119.033 8 256zm248 184V72c101.705.0 184 82.311 184 184 0 101.705-82.311 184-184 184z"/></symbol><symbol viewBox="0 0 448 512" id="angle-double-right"><path d="M224.3 273l-136 136c-9.4 9.4-24.6 9.4-33.9.0l-22.6-22.6c-9.4-9.4-9.4-24.6.0-33.9l96.4-96.4-96.4-96.4c-9.4-9.4-9.4-24.6.0-33.9L54.3 103c9.4-9.4 24.6-9.4 33.9.0l136 136c9.5 9.4 9.5 24.6.1 34zm192-34-136-136c-9.4-9.4-24.6-9.4-33.9.0l-22.6 22.6c-9.4 9.4-9.4 24.6.0 33.9l96.4 96.4-96.4 96.4c-9.4 9.4-9.4 24.6.0 33.9l22.6 22.6c9.4 9.4 24.6 9.4 33.9.0l136-136c9.4-9.2 9.4-24.4.0-33.8z"/></symbol><symbol viewBox="0 0 256 512" id="angle-right"><path d="M224.3 273l-136 136c-9.4 9.4-24.6 9.4-33.9.0l-22.6-22.6c-9.4-9.4-9.4-24.6.0-33.9l96.4-96.4-96.4-96.4c-9.4-9.4-9.4-24.6.0-33.9L54.3 103c9.4-9.4 24.6-9.4 33.9.0l136 136c9.5 9.4 9.5 24.6.1 34z"/></symbol><symbol viewBox="0 0 320 512" id="caret-down"><path d="M31.3 192h257.3c17.8.0 26.7 21.5 14.1 34.1L174.1 354.8c-7.8 7.8-20.5 7.8-28.3.0L17.2 226.1C4.6 213.5 13.5 192 31.3 192z"/></symbol><symbol viewBox="0 0 448 512" id="hashtag"><path d="M440.667 182.109l7.143-40c1.313-7.355-4.342-14.109-11.813-14.109h-74.81l14.623-81.891C377.123 38.754 371.468 32 363.997 32h-40.632a12 12 0 00-11.813 9.891L296.175 128H197.54l14.623-81.891C213.477 38.754 207.822 32 200.35 32h-40.632a12 12 0 00-11.813 9.891L132.528 128H53.432a12 12 0 00-11.813 9.891l-7.143 40C33.163 185.246 38.818 192 46.289 192h74.81L98.242 320H19.146a12 12 0 00-11.813 9.891l-7.143 40C-1.123 377.246 4.532 384 12.003 384h74.81L72.19 465.891C70.877 473.246 76.532 480 84.003 480h40.632a12 12 0 0011.813-9.891L151.826 384h98.634l-14.623 81.891C234.523 473.246 240.178 480 247.65 480h40.632a12 12 0 0011.813-9.891L315.472 384h79.096a12 12 0 0011.813-9.891l7.143-40c1.313-7.355-4.342-14.109-11.813-14.109h-74.81l22.857-128h79.096a12 12 0 0011.813-9.891zM261.889 320h-98.634l22.857-128h98.634l-22.857 128z"/></symbol><symbol viewBox="0 0 512 512" id="search"><path d="M505 442.7 405.3 343c-4.5-4.5-10.6-7-17-7H372c27.6-35.3 44-79.7 44-128C416 93.1 322.9.0 208 0S0 93.1.0 208s93.1 208 208 208c48.3.0 92.7-16.4 128-44v16.3c0 6.4 2.5 12.5 7 17l99.7 99.7c9.4 9.4 24.6 9.4 33.9.0l28.3-28.3c9.4-9.4 9.4-24.6.1-34zM208 336c-70.7.0-128-57.2-128-128 0-70.7 57.2-128 128-128 70.7.0 128 57.2 128 128 0 70.7-57.2 128-128 128z"/></symbol><symbol viewBox="0 0 384 512" id="xing"><path d="M162.7 210c-1.8 3.3-25.2 44.4-70.1 123.5-4.9 8.3-10.8 12.5-17.7 12.5H9.8c-7.7.0-12.1-7.5-8.5-14.4l69-121.3c.2.0.2-.1.0-.3l-43.9-75.6c-4.3-7.8.3-14.1 8.5-14.1H1e2c7.3.0 13.3 4.1 18 12.2l44.7 77.5zM382.6 46.1l-144 253v.3L330.2 466c3.9 7.1.2 14.1-8.5 14.1h-65.2c-7.6.0-13.6-4-18-12.2l-92.4-168.5c3.3-5.8 51.5-90.8 144.8-255.2 4.6-8.1 10.4-12.2 17.5-12.2h65.7c8 0 12.3 6.7 8.5 14.1z"/></symbol><symbol viewBox="0 0 496 512" id="github"><path d="M165.9 397.4c0 2-2.3 3.6-5.2 3.6-3.3.3-5.6-1.3-5.6-3.6.0-2 2.3-3.6 5.2-3.6 3-.3 5.6 1.3 5.6 3.6zm-31.1-4.5c-.7 2 1.3 4.3 4.3 4.9 2.6 1 5.6.0 6.2-2s-1.3-4.3-4.3-5.2c-2.6-.7-5.5.3-6.2 2.3zm44.2-1.7c-2.9.7-4.9 2.6-4.6 4.9.3 2 2.9 3.3 5.9 2.6 2.9-.7 4.9-2.6 4.6-4.6-.3-1.9-3-3.2-5.9-2.9zM244.8 8C106.1 8 0 113.3.0 252c0 110.9 69.8 205.8 169.5 239.2 12.8 2.3 17.3-5.6 17.3-12.1.0-6.2-.3-40.4-.3-61.4.0.0-70 15-84.7-29.8.0.0-11.4-29.1-27.8-36.6.0.0-22.9-15.7 1.6-15.4.0.0 24.9 2 38.6 25.8 21.9 38.6 58.6 27.5 72.9 20.9 2.3-16 8.8-27.1 16-33.7-55.9-6.2-112.3-14.3-112.3-110.5.0-27.5 7.6-41.3 23.6-58.9-2.6-6.5-11.1-33.3 2.6-67.9 20.9-6.5 69 27 69 27 20-5.6 41.5-8.5 62.8-8.5s42.8 2.9 62.8 8.5c0 0 48.1-33.6 69-27 13.7 34.7 5.2 61.4 2.6 67.9 16 17.7 25.8 31.5 25.8 58.9.0 96.5-58.9 104.2-114.8 110.5 9.2 7.9 17 22.9 17 46.4.0 33.7-.3 75.4-.3 83.6.0 6.5 4.6 14.4 17.3 12.1C428.2 457.8 496 362.9 496 252 496 113.3 383.5 8 244.8 8zM97.2 352.9c-1.3 1-1 3.3.7 5.2 1.6 1.6 3.9 2.3 5.2 1 1.3-1 1-3.3-.7-5.2-1.6-1.6-3.9-2.3-5.2-1zm-10.8-8.1c-.7 1.3.3 2.9 2.3 3.9 1.6 1 3.6.7 4.3-.7.7-1.3-.3-2.9-2.3-3.9-2-.6-3.6-.3-4.3.7zm32.4 35.6c-1.6 1.3-1 4.3 1.3 6.2 2.3 2.3 5.2 2.6 6.5 1 1.3-1.3.7-4.3-1.3-6.2-2.2-2.3-5.2-2.6-6.5-1zm-11.4-14.7c-1.6 1-1.6 3.6.0 5.9 1.6 2.3 4.3 3.3 5.6 2.3 1.6-1.3 1.6-3.9.0-6.2-1.4-2.3-4-3.3-5.6-2z"/></symbol><symbol viewBox="0 0 384 512" id="xing"><path d="M162.7 210c-1.8 3.3-25.2 44.4-70.1 123.5-4.9 8.3-10.8 12.5-17.7 12.5H9.8c-7.7.0-12.1-7.5-8.5-14.4l69-121.3c.2.0.2-.1.0-.3l-43.9-75.6c-4.3-7.8.3-14.1 8.5-14.1H1e2c7.3.0 13.3 4.1 18 12.2l44.7 77.5zM382.6 46.1l-144 253v.3L330.2 466c3.9 7.1.2 14.1-8.5 14.1h-65.2c-7.6.0-13.6-4-18-12.2l-92.4-168.5c3.3-5.8 51.5-90.8 144.8-255.2 4.6-8.1 10.4-12.2 17.5-12.2h65.7c8 0 12.3 6.7 8.5 14.1z"/></symbol></svg>